<svg id="Layer_1" data-name="Layer 1" xmlns="http://www.w3.org/2000/svg" viewBox="0 0 479.48936 398.29787"><defs><style>.cls-1{fill:#ceebf1;}</style></defs><path class="cls-1" d="M403.00135,32.197c-4.49719-.19739-9.00958-.05933-13.51508-.05939Q233.6464,32.13521,77.80659,32.143c-21.58686.003-37.95008,13.4776-41.98755,34.6004a40.28414,40.28414,0,0,0-.44818,7.50915c-.02149,80.57087.20306,161.14276-.1601,241.7121a42.35369,42.35369,0,0,0,42.22162,42.181q161.405-.30011,322.811-.06958a40.64311,40.64311,0,0,0,10.99384-1.25568c16.0144-4.46618,26.02588-14.889,30.35577-30.86786.1969-.72656-.07568-1.63262.85627-2.04638V67.08363c-1.989-7.68109-4.7721-14.95191-10.24268-20.95484C424.34754,37.50508,414.67658,32.70954,403.00135,32.197ZM396.797,317.14625c-10.59338-.26251-21.20025-.22607-31.79565-.00842-3.17981.06531-3.85779-.877-3.85284-3.92395q.13889-85.26306.05615-170.52649c-.00031-1.28534.29834-3.244-.37024-3.71588-1.39093-.98175-2.56207.7962-3.69422,1.51147q-56.635,35.77881-113.146,71.75263c-3.70154,2.36566-6.18451,2.6051-10.0362.13891q-56.58252-36.2286-113.45459-72.00458c-1.05462-.66687-2.14495-2.22277-3.39489-1.524-1.20081.67126-.496,2.398-.49665,3.63922q-.045,85.06458.05567,170.1289c.00726,3.54505-.77039,4.63544-4.46021,4.53815q-15.69012-.414-31.39728-.00647c-3.6983.09119-4.86962-.66821-4.85192-4.66577.17382-39.219.10485-78.43915.10485-117.65893s.04438-78.4397-.079-117.65912c-.01056-3.35889,1.06012-3.78315,4.16761-4.15778,14.11041-1.70129,25.80535,2.90448,37.691,10.4989,38.95593,24.891,78.55993,48.76691,117.83563,73.16052,2.56567,1.59357,4.18072,1.36872,6.59625-.12774Q308.305,115.63008,374.423,74.86512a10.43344,10.43344,0,0,1,5.91748-1.75934q9.33892.144,18.68115-.00195c2.00782-.03155,3.02436.507,2.731,2.665a14.86451,14.86451,0,0,0-.0133,1.98566q0,117.26184.11291,234.52349C401.86048,316.4878,400.63557,317.24134,396.797,317.14625Z"/></svg>